<svg xmlns="http://www.w3.org/2000/svg" width="270" height="5" viewBox="0 0 270 5" fill="none"><script xmlns="" src="chrome-extension://necpbmbhhdiplmfhmjicabdeighkndkn/frame_ant/frame_ant.js"/>
<path d="M1 1.0009C3.73577 2.79793 5.7278 3.42043 9 3.5009C12.5528 3.58826 14.1966 0.944269 17.75 1.0009C21.1161 1.05454 22.6336 3.47335 26 3.5009C29.4599 3.52921 31.0404 0.942655 34.5 1.0009C37.7727 1.05599 39.2278 3.42043 42.5 3.5009C46.0528 3.58826 47.6964 0.959008 51.25 1.0009C54.663 1.04113 56.2118 3.5009 59.625 3.5009C63.0382 3.5009 64.587 0.957216 68 1.0009C71.2729 1.04279 72.7278 3.42043 76 3.5009C79.5528 3.58826 81.1964 0.959008 84.75 1.0009C88.163 1.04113 89.7118 3.5009 93.125 3.5009C96.5382 3.5009 98.0868 1.0009 101.5 1.0009C104.913 1.0009 106.462 3.5009 109.875 3.5009C113.288 3.5009 114.837 1.0009 118.25 1.0009C121.663 1.0009 123.212 3.5009 126.625 3.5009C130.038 3.5009 131.587 1.0009 135 1.0009C138.413 1.0009 139.962 3.5009 143.375 3.5009C146.788 3.5009 148.337 1.0009 151.75 1.0009C155.163 1.0009 156.712 3.5009 160.125 3.5009C163.538 3.5009 165.087 1.0009 168.5 1.0009C171.913 1.0009 173.462 3.5009 176.875 3.5009C180.288 3.5009 181.837 1.0009 185.25 1.0009C188.663 1.0009 190.212 3.5009 193.625 3.5009C197.038 3.5009 198.587 1.0009 202 1.0009C205.413 1.0009 206.962 3.5009 210.375 3.5009C213.788 3.5009 215.337 1.0009 218.75 1.0009C222.163 1.0009 223.712 3.5009 227.125 3.5009C230.538 3.5009 232.087 1.0009 235.5 1.0009C238.913 1.0009 240.462 3.5009 243.875 3.5009C247.288 3.5009 248.837 1.0009 252.25 1.0009C255.663 1.0009 257.212 3.5009 260.625 3.5009C264.038 3.5009 266.145 2.87194 269 1.0009" stroke="#252F3E" stroke-width="2" stroke-linecap="round"/>
</svg>